<?xml version="1.0" standalone="no"?>
<!DOCTYPE svg PUBLIC "-//W3C//DTD SVG 20010904//EN"
 "http://www.w3.org/TR/2001/REC-SVG-20010904/DTD/svg10.dtd">
<svg version="1.0" xmlns="http://www.w3.org/2000/svg"
 width="768.000000pt" height="463.000000pt" viewBox="0 0 768.000000 463.000000"
 preserveAspectRatio="xMidYMid meet">

<g transform="translate(0.000000,463.000000) scale(0.100000,-0.100000)"
fill="#000000" stroke="none">
<path d="M5260 4485 l0 -45 45 0 45 0 0 45 0 45 -45 0 -45 0 0 -45z"/>
<path d="M2480 4270 l0 -40 40 0 40 0 0 40 0 40 -40 0 -40 0 0 -40z"/>
<path d="M7290 4005 l0 -45 45 0 45 0 0 45 0 45 -45 0 -45 0 0 -45z"/>
<path d="M646 3967 c-35 -35 -38 -80 -34 -520 l3 -389 26 -22 c25 -22 37 -23
225 -28 l198 -5 23 -27 c20 -23 23 -38 23 -107 0 -53 -4 -79 -12 -79 -6 0 -62
10 -125 21 -63 12 -116 19 -119 16 -3 -2 -19 -78 -36 -167 -24 -128 -28 -164
-18 -170 15 -9 91 -22 97 -17 2 2 13 53 25 112 l22 107 50 -6 c28 -4 79 -12
114 -18 l64 -12 -7 -57 c-7 -63 -9 -61 68 -75 42 -7 40 2 21 -93 -5 -28 -3
-29 47 -40 29 -6 56 -8 60 -4 4 5 11 31 14 59 l7 51 -53 9 -54 9 4 40 c8 74 7
79 -14 83 -11 1 -30 5 -42 8 l-23 4 0 460 0 460 -250 0 -250 0 0 165 0 165
420 0 420 0 0 -835 0 -835 -27 0 c-50 0 -57 11 -44 69 6 29 11 54 11 55 0 2
-21 7 -46 11 -26 3 -52 9 -59 11 -8 4 -15 -10 -20 -42 -3 -25 -9 -52 -11 -59
-4 -9 10 -15 43 -20 69 -9 74 -13 63 -60 -17 -71 -15 -73 45 -80 30 -4 55 -12
55 -19 0 -6 -10 -58 -22 -115 l-22 -103 -45 5 c-25 3 -76 11 -113 17 -75 13
-77 16 -59 92 8 35 7 37 -20 42 -16 4 -43 9 -59 12 -23 4 -30 10 -26 22 2 10
7 36 11 59 l6 41 -56 12 -57 12 7 36 c3 21 9 47 12 59 4 19 0 22 -51 28 -31 4
-58 10 -60 14 -2 3 1 30 6 59 6 29 9 54 7 56 -2 2 -27 7 -55 11 l-52 7 -11
-52 c-6 -28 -11 -53 -11 -55 0 -2 25 -9 55 -15 60 -12 61 -15 46 -83 -10 -42
-13 -39 56 -57 l42 -10 -5 -113 c-2 -61 -19 -262 -37 -445 l-33 -333 210 -524
210 -525 217 0 217 0 6 27 c2 16 7 73 11 128 3 55 8 121 11 148 l6 47 159 0
159 0 0 45 0 45 104 0 104 0 16 -70 c9 -39 32 -138 52 -220 l36 -150 84 0 c51
0 84 4 84 10 0 6 -6 26 -14 45 -13 30 -19 34 -58 37 l-43 3 -47 195 c-49 202
-55 235 -38 225 6 -3 10 3 10 14 0 27 -20 27 -27 1 -4 -16 -14 -20 -49 -20
-32 0 -44 4 -44 15 0 12 -15 15 -73 15 l-73 0 -18 73 c-10 39 -21 78 -24 86
-4 10 -1 13 11 8 14 -5 16 -2 11 21 -13 58 -17 68 -36 82 -22 18 -62 161 -55
197 2 12 -1 24 -7 26 -29 11 14 15 179 18 l179 4 7 -25 c13 -45 10 -60 -7 -53
-14 5 -16 2 -11 -18 3 -13 15 -72 28 -131 16 -77 26 -105 33 -98 7 5 46 10 89
11 l77 2 -6 36 c-4 20 -14 45 -24 56 -17 19 -61 210 -51 220 7 8 357 6 364 -2
4 -3 1 -14 -7 -22 -13 -14 -13 -29 2 -119 13 -82 14 -107 4 -122 -7 -11 -12
-36 -12 -55 0 -33 2 -35 34 -35 37 0 35 3 52 -113 l7 -49 -132 4 c-136 3 -150
-1 -112 -36 12 -11 22 -38 26 -69 3 -29 9 -61 12 -72 5 -18 4 -18 -11 -5 -17
13 -17 11 -11 -36 4 -29 15 -56 26 -66 10 -9 19 -23 19 -32 0 -13 11 -16 50
-16 l50 0 0 78 c0 42 3 94 6 115 l7 37 68 0 69 0 0 114 c0 62 3 128 6 145 l7
31 92 0 93 0 6 -27 c3 -16 8 -53 11 -83 15 -155 36 -349 41 -377 5 -32 7 -33
49 -33 48 0 56 11 29 41 -12 13 -22 74 -38 229 -12 116 -20 213 -17 215 2 3 9
1 15 -4 20 -17 6 79 -15 100 -10 10 -19 26 -19 34 0 13 -20 15 -124 15 l-123
0 -7 78 c-3 42 -9 92 -12 109 -5 29 -4 33 15 33 11 0 21 5 21 10 0 6 20 10 45
10 25 0 45 -4 45 -10 0 -6 130 -10 370 -10 206 0 370 -4 370 -9 0 -5 -7 -14
-15 -21 -21 -17 -19 -42 5 -63 16 -13 20 -29 20 -72 l0 -55 -128 0 c-89 0
-132 4 -141 13 -20 18 -8 -148 12 -171 20 -24 30 -152 11 -152 -19 0 -19 -93
0 -109 10 -8 17 -45 22 -112 l7 -99 33 0 34 0 2 258 3 257 101 3 102 3 7 -203
c4 -112 6 -229 4 -261 l-4 -57 34 0 33 0 -3 68 c-3 50 -1 66 9 65 18 -4 16 85
-3 103 -21 21 -22 169 -1 161 11 -4 15 18 18 116 4 109 3 124 -14 140 -15 15
-18 33 -18 107 l0 90 185 0 c102 0 185 -3 185 -7 0 -3 -6 -14 -14 -22 -19 -22
-26 -205 -8 -222 7 -8 12 -42 12 -91 l0 -78 60 0 c54 0 60 2 60 21 0 14 5 19
14 16 18 -7 23 26 32 211 5 103 3 142 -5 142 -6 0 -11 7 -11 15 0 13 27 15
185 15 102 0 185 -3 185 -7 0 -18 -20 -191 -26 -222 -4 -25 -8 -31 -14 -21
-14 23 -18 10 -29 -93 -6 -53 -16 -140 -21 -193 -8 -72 -8 -99 1 -110 20 -25
-4 -194 -27 -186 -5 2 -10 -1 -12 -7 -2 -7 26 -11 86 -11 l90 0 11 75 c14 94
14 118 1 131 -16 16 9 206 27 200 15 -6 15 -3 37 154 26 193 30 248 17 263 -6
8 -8 17 -4 20 8 8 857 9 865 2 3 -3 -1 -33 -10 -66 -11 -46 -17 -57 -27 -49
-16 13 -13 24 -65 -194 -30 -125 -37 -172 -29 -182 18 -22 -23 -187 -44 -178
-17 6 -82 -255 -67 -270 21 -21 7 -26 -74 -26 l-84 0 -15 -45 -16 -45 346 2
346 3 32 100 c22 70 36 101 48 103 14 3 17 -5 17 -41 0 -24 3 -72 6 -106 l7
-61 219 2 220 3 210 525 c206 514 210 526 204 580 -11 97 -56 535 -56 543 0 4
6 7 14 7 15 0 33 91 21 110 -3 5 -31 10 -61 10 l-54 0 0 -60 0 -60 -60 0 -60
0 0 -60 0 -60 -114 0 -113 0 -8 110 c-3 60 -4 114 0 120 3 5 30 10 60 10 l54
0 3 58 3 57 58 3 57 3 0 54 0 54 58 3 57 3 3 57 3 57 57 3 57 3 0 55 0 55 -47
3 -47 3 -6 67 c-14 141 -35 296 -42 303 -5 5 -39 9 -78 11 l-70 3 -5 277 -5
278 -28 27 -27 28 -188 -3 c-117 -2 -196 -8 -212 -15 -46 -22 -50 -45 -50
-299 l0 -236 -26 -31 c-30 -36 -70 -41 -105 -12 -24 19 -24 21 -29 280 -6 325
6 304 -173 311 l-122 5 -3 33 c-3 31 -5 32 -48 32 -44 0 -44 0 -44 -35 l0 -35
-112 0 c-95 0 -118 -3 -143 -20 -28 -18 -30 -18 -48 -2 -16 14 -46 18 -198 20
-100 2 -179 8 -179 13 0 5 -43 9 -95 9 -57 0 -95 -4 -95 -10 0 -5 -20 -10 -44
-10 -45 0 -56 10 -56 51 0 16 -7 19 -45 19 -45 0 -45 0 -45 -35 l0 -35 -163 0
c-137 0 -168 -3 -198 -18 -34 -17 -36 -17 -65 0 -26 16 -57 18 -304 18 -256 0
-277 -1 -305 -20 -29 -19 -29 -19 -61 0 -30 19 -52 20 -496 20 -256 0 -480 -3
-497 -6 -59 -12 -62 -24 -62 -313 0 -144 -2 -268 -5 -276 -5 -12 -31 -15 -139
-15 -142 0 -148 2 -160 53 -4 15 -11 27 -16 27 -5 0 -9 47 -9 105 0 69 4 105
11 105 13 0 9 66 -10 180 -16 93 -29 122 -61 131 -14 4 -145 7 -291 8 -248 1
-267 2 -286 20 -12 11 -23 18 -26 15 -2 -2 -6 91 -9 207 -5 199 -6 212 -27
232 -21 22 -25 22 -476 25 l-455 3 -24 -24z m1564 -987 l0 -421 83 3 82 3 3
83 3 82 79 0 79 0 3 -82 3 -83 83 -3 82 -3 0 421 0 420 167 -2 167 -3 3 -582
4 -583 -255 0 -256 0 0 80 0 80 -80 0 -80 0 0 -80 0 -80 -255 0 -255 0 0 421
0 421 -82 -3 -83 -4 -3 105 c-2 58 0 133 3 168 l7 62 249 0 249 0 0 -420z
m1420 335 l0 -86 83 3 82 3 3 83 3 82 249 0 250 0 0 -585 0 -585 -165 0 -165
0 -2 203 c-1 111 -2 261 -3 332 l-2 130 -164 0 -164 0 -3 -332 -2 -333 -165 0
-165 0 -1 208 c0 114 -2 302 -5 417 l-6 210 -79 -2 -79 -1 0 169 0 169 250 0
250 0 0 -85z m1840 -500 l0 -585 -500 0 -500 0 0 585 0 585 500 0 500 0 0
-585z m670 250 l0 -335 170 0 170 0 0 335 0 335 165 0 165 0 0 -335 0 -335 85
0 85 0 0 -175 c0 -110 -4 -175 -10 -175 -6 0 -10 -27 -10 -60 l0 -60 -60 0
c-47 0 -60 -3 -60 -15 0 -13 -27 -15 -180 -15 l-180 0 0 58 c0 109 11 102
-171 102 l-159 0 0 -80 0 -80 -170 0 -170 0 -2 418 -3 417 -82 -2 -83 -1 0
169 0 169 250 0 250 0 0 -335z m-3770 -960 c0 -16 6 -25 15 -25 13 0 15 -21
15 -130 0 -109 -2 -130 -15 -130 -8 0 -15 -7 -15 -15 0 -13 -26 -15 -170 -15
-121 0 -170 -3 -170 -11 0 -7 -7 -17 -15 -23 -10 -8 -15 -34 -16 -88 -1 -43
-6 -75 -11 -72 -4 3 -11 -2 -14 -10 -9 -25 -33 -19 -67 16 -32 31 -32 33 -35
145 -3 98 -2 113 12 113 9 0 16 7 16 15 0 8 7 15 15 15 8 0 15 5 15 10 0 6 58
10 155 10 97 0 155 -4 155 -10 0 -5 7 -10 15 -10 8 0 15 5 15 10 0 6 7 10 15
10 11 0 15 12 15 45 l0 45 -63 0 c-40 0 -70 -6 -84 -15 -21 -14 -24 -14 -43 5
-34 34 -21 120 19 120 6 0 11 5 11 10 0 6 45 10 115 10 l115 0 0 -25z m-640
-36 c27 -6 50 -16 50 -22 0 -20 -38 -208 -43 -213 -9 -10 -107 18 -107 31 0
15 29 172 36 198 6 20 1 20 64 6z m4878 -139 c4 -138 3 -140 -63 -140 l-55 0
0 120 0 121 58 -3 57 -3 3 -95z m-242 3 c-3 -21 -6 -122 -6 -225 0 -181 -1
-188 -20 -188 -19 0 -20 7 -20 205 l0 205 -1855 2 c-1409 2 -1857 6 -1863 15
-4 6 -25 13 -47 16 -22 2 828 4 1889 5 l1929 2 -7 -37z m-3756 -53 l30 -29 0
-126 c0 -126 0 -127 -29 -156 l-29 -29 -156 0 -156 0 0 -25 c0 -24 2 -25 75
-25 60 0 75 -3 75 -15 0 -8 7 -15 15 -15 27 0 18 -56 -15 -90 -29 -30 -29 -30
-145 -30 -112 0 -138 6 -172 37 -9 8 -13 48 -13 142 l0 130 34 35 33 36 122 0
121 0 40 40 c37 37 40 44 40 95 l0 55 50 0 c41 0 54 -5 80 -30z m2111 10 c31
-17 22 -31 -18 -28 -27 2 -39 8 -41 21 -4 20 27 23 59 7z m-3138 -36 l38 -6
-7 -47 c-3 -25 -10 -50 -14 -55 -5 -4 -31 -5 -60 -1 l-51 7 6 42 c10 67 15 77
33 72 9 -3 34 -8 55 -12z m2145 -16 c3 -14 -3 -18 -23 -18 l-27 0 4 -95 c4
-92 3 -96 -17 -93 -19 3 -20 11 -23 116 l-3 113 43 -3 c31 -2 44 -8 46 -20z
m1872 -70 c0 -51 3 -104 7 -116 5 -21 3 -23 -18 -20 -23 3 -24 7 -27 96 -2 73
-6 92 -17 92 -15 0 -20 21 -8 33 3 4 19 7 35 7 l28 0 0 -92z m-2290 62 c0 -18
-7 -20 -55 -20 -41 0 -55 4 -55 14 0 14 11 16 93 24 11 1 17 -5 17 -18z m530
-78 c0 -63 -4 -102 -12 -110 -7 -7 -31 -12 -55 -12 l-43 0 0 54 c0 29 -3 68
-6 85 -6 28 -4 31 20 31 26 0 26 -1 26 -70 0 -56 3 -70 15 -70 12 0 15 17 15
95 0 88 1 95 20 95 19 0 20 -7 20 -98z m-2462 23 l103 -18 -6 -51 c-4 -28 -10
-54 -14 -58 -6 -7 -203 26 -221 37 -11 7 12 116 24 112 6 -2 57 -12 114 -22z
m1462 -60 c0 -78 -2 -85 -20 -85 -18 0 -20 7 -20 56 0 34 -4 53 -10 49 -5 -3
-10 -28 -10 -56 0 -42 -3 -49 -20 -49 -18 0 -20 6 -19 85 l1 85 49 0 49 0 0
-85z m108 73 c7 -7 12 -42 12 -85 0 -66 -2 -73 -20 -73 -18 0 -20 7 -20 64 0
55 -3 64 -20 69 -11 3 -20 12 -20 21 0 19 50 22 68 4z m142 -14 c0 -23 -3 -25
-30 -19 -16 4 -30 3 -30 -2 0 -5 14 -17 30 -26 25 -15 30 -24 30 -58 l0 -39
-50 0 c-47 0 -50 2 -50 25 0 18 5 25 20 25 11 0 20 -4 20 -10 0 -5 5 -10 10
-10 21 0 9 29 -20 50 -23 17 -30 29 -30 56 l0 34 50 0 c47 0 50 -2 50 -26z
m75 14 c2 -7 5 -46 8 -86 4 -70 3 -73 -17 -70 -19 3 -21 10 -24 86 -2 69 0 82
13 82 9 0 17 -6 20 -12z m145 -73 l0 -85 -50 0 -50 0 1 85 2 85 49 0 48 0 0
-85z m90 72 c0 -7 -5 -18 -11 -24 -8 -8 -7 -17 3 -33 10 -18 10 -24 1 -27 -18
-7 -16 -43 2 -43 12 0 15 14 15 70 0 63 2 70 20 70 18 0 20 -7 20 -86 l0 -85
-52 3 c-50 3 -53 5 -56 31 -2 16 2 34 8 42 7 9 8 15 0 20 -11 7 -14 58 -3 68
12 12 53 7 53 -6z m130 -52 c0 -53 3 -63 15 -59 11 5 15 22 15 65 0 51 3 59
19 59 16 0 19 -10 23 -72 3 -40 3 -78 1 -84 -2 -7 -28 -12 -59 -12 l-54 0 0
53 c0 29 -3 67 -6 84 -6 28 -4 31 20 31 25 0 26 -2 26 -65z m440 39 c0 -23 -3
-25 -30 -19 -16 4 -30 3 -30 -2 0 -5 14 -17 30 -26 25 -15 30 -24 30 -58 l0
-39 -50 0 c-47 0 -50 2 -50 25 0 18 5 25 20 25 11 0 20 -4 20 -10 0 -5 5 -10
10 -10 21 0 9 29 -20 50 -23 17 -30 29 -30 56 l0 34 50 0 c47 0 50 -2 50 -26z
m80 -36 c0 -35 3 -74 7 -86 5 -21 3 -23 -18 -20 -23 3 -24 7 -27 86 -3 77 -2
82 18 82 18 0 20 -6 20 -62z m60 0 c0 -35 3 -74 7 -86 5 -21 3 -23 -18 -20
-23 3 -24 7 -27 86 -3 77 -2 82 18 82 18 0 20 -6 20 -62z m150 -23 c0 -78 -2
-85 -20 -85 -18 0 -20 7 -20 65 0 39 -4 65 -11 65 -5 0 -8 -4 -4 -9 3 -5 1
-12 -5 -16 -5 -3 -10 -28 -10 -56 0 -42 -3 -49 -20 -49 -17 0 -20 7 -20 49 0
28 5 53 11 57 8 4 8 9 0 17 -6 6 -11 19 -11 29 0 15 9 18 55 18 l55 0 0 -85z
m140 59 c0 -25 -2 -26 -37 -20 l-38 6 38 -32 c28 -26 37 -40 37 -65 l0 -33
-55 0 c-52 0 -55 1 -55 25 0 18 5 25 19 25 11 0 23 -4 26 -10 9 -15 25 -12 25
4 0 8 -16 24 -35 36 -26 16 -35 28 -35 49 0 37 6 41 62 41 45 0 48 -2 48 -26z
m82 -36 c2 -38 8 -63 16 -66 9 -3 12 14 12 62 0 59 2 66 20 66 18 0 20 -7 20
-84 l0 -84 -55 0 c-30 0 -55 3 -56 7 0 3 -2 41 -3 84 -2 74 -1 77 20 77 21 0
23 -5 26 -62z m228 -23 c0 -78 -2 -85 -20 -85 -16 0 -20 7 -21 33 l-1 32 -9
-32 c-8 -29 -14 -33 -44 -33 l-35 0 0 85 0 85 65 0 65 0 0 -85z m128 3 c-3
-82 -3 -83 -30 -86 -20 -2 -28 1 -28 12 0 9 5 16 10 16 6 0 10 22 10 50 l0 50
-30 -6 c-27 -6 -30 -4 -30 20 0 25 3 26 50 26 l51 0 -3 -82z m92 69 c0 -7 -5
-18 -11 -24 -8 -8 -7 -17 3 -33 10 -18 10 -24 1 -27 -18 -7 -16 -43 2 -43 12
0 15 14 15 70 0 63 2 70 20 70 18 0 20 -7 20 -86 l0 -85 -52 3 c-50 3 -53 5
-56 31 -2 16 2 34 8 42 7 9 8 15 0 20 -11 7 -14 58 -3 68 12 12 53 7 53 -6z
m200 -72 c0 -78 -2 -85 -20 -85 -18 0 -20 7 -20 65 0 39 -4 65 -11 65 -5 0 -8
-4 -4 -9 3 -5 1 -12 -5 -16 -5 -3 -10 -28 -10 -56 0 -45 -2 -49 -25 -49 -23 0
-24 2 -18 53 3 28 10 55 16 58 5 4 5 9 -2 13 -6 4 -11 16 -11 27 0 16 7 19 55
19 l55 0 0 -85z m108 -2 c3 -78 2 -83 -18 -83 -18 0 -20 6 -20 65 0 51 -3 65
-15 65 -8 0 -15 9 -15 21 0 17 5 20 33 17 l32 -3 3 -82z m82 62 c0 -16 6 -25
15 -25 9 0 15 9 15 25 0 18 5 25 19 25 22 0 32 -50 22 -120 l-6 -45 -52 -3
-53 -3 0 54 c0 30 -3 69 -6 86 -6 28 -4 31 20 31 21 0 26 -5 26 -25z m188 -62
c3 -78 2 -83 -18 -83 -18 0 -20 6 -20 65 0 50 -3 65 -14 65 -8 0 -18 5 -21 10
-11 18 6 31 38 28 l32 -3 3 -82z m182 60 c1 -24 2 -25 11 -10 5 9 14 17 19 17
5 0 11 -8 13 -17 3 -11 5 -7 6 10 1 20 6 27 21 27 18 0 20 -7 20 -85 0 -83 0
-85 -24 -85 -19 0 -26 7 -32 33 l-7 32 -10 -32 c-8 -25 -16 -33 -33 -33 -22 0
-24 4 -24 54 0 29 -3 68 -6 85 -6 28 -4 31 20 31 22 0 26 -5 26 -27z m171 -10
l1 -38 12 35 c8 23 20 36 34 38 21 3 22 0 22 -82 0 -79 -2 -86 -20 -86 -16 0
-20 7 -21 33 l-1 32 -14 -32 c-9 -22 -21 -33 -34 -33 -18 0 -20 7 -20 54 0 29
-3 68 -6 85 -6 28 -4 31 20 31 23 0 26 -4 27 -37z m207 -50 l3 -83 -56 0 -56
0 3 53 c3 45 6 52 26 55 24 4 45 -29 24 -36 -17 -5 -15 -42 3 -42 11 0 15 12
15 50 l0 51 -35 -7 c-30 -5 -35 -4 -35 13 0 29 10 34 60 31 l45 -3 3 -82z m82
21 c0 -48 3 -65 13 -62 7 3 13 28 15 66 2 52 6 62 21 62 16 0 19 -10 23 -72 3
-40 3 -78 1 -84 -2 -7 -28 -12 -59 -12 l-54 0 0 53 c0 29 -3 67 -6 84 -6 28
-4 31 20 31 25 0 26 -1 26 -66z m570 -4 l0 -60 -55 0 -55 0 0 60 0 60 55 0 55
0 0 -60z m240 -115 l0 -55 -115 0 -115 0 0 55 0 55 115 0 115 0 0 -55z m-930
-155 c0 -5 -20 -10 -45 -10 -25 0 -45 5 -45 10 0 6 20 10 45 10 25 0 45 -4 45
-10z m-4060 -158 c0 -4 -5 -13 -11 -19 -16 -16 8 -93 35 -118 14 -12 30 -46
40 -82 20 -76 20 -87 2 -80 -21 8 8 -93 33 -113 11 -9 29 -52 44 -103 l25 -88
-249 3 c-218 3 -249 1 -243 -12 3 -8 19 -53 35 -100 16 -46 38 -94 49 -105 21
-22 27 -41 11 -30 -6 3 -3 -15 6 -41 8 -25 22 -48 29 -51 42 -16 -3 -23 -146
-23 -145 0 -181 6 -151 24 12 8 -58 178 -80 193 -9 7 -24 32 -34 55 -56 140
-56 141 -40 135 8 -4 15 -5 15 -3 0 2 -17 48 -39 102 -21 55 -51 132 -66 172
-15 40 -35 76 -44 82 -17 9 -72 126 -86 183 l-7 27 436 0 c240 0 436 -4 436
-8z m4524 -19 c-10 -40 -14 -45 -28 -34 -10 9 -18 -6 -35 -63 -11 -41 -23 -81
-26 -88 -4 -11 11 -13 72 -10 76 3 78 2 57 -15 -24 -21 -69 -146 -60 -168 4
-11 24 -15 81 -15 53 0 75 -4 76 -12 0 -7 9 9 20 37 13 32 18 61 15 79 -4 20
4 62 25 126 34 103 45 122 58 101 6 -9 10 -5 14 16 3 15 2 30 -2 33 -4 3 -7
12 -6 20 0 13 28 15 183 18 103 1 182 -1 182 -7 0 -5 -9 -15 -20 -22 -27 -19
-141 -318 -129 -340 11 -22 -59 -202 -76 -195 -15 6 -100 -206 -92 -228 4 -9
0 -32 -8 -53 -7 -21 -14 -31 -15 -23 -2 26 -33 -43 -32 -72 l1 -28 -155 0
c-99 0 -154 4 -154 10 0 6 7 13 16 17 11 4 14 14 10 34 -3 17 6 60 24 113 l29
86 -55 0 c-37 0 -54 4 -54 13 0 6 12 46 25 87 14 41 25 78 25 83 0 4 -28 7
-61 5 l-62 -3 -26 -87 c-18 -60 -30 -87 -40 -85 -21 3 -65 -142 -50 -167 6
-10 6 -15 1 -12 -14 8 -35 -49 -27 -73 6 -21 4 -21 -156 -21 l-162 0 20 23
c25 27 38 77 23 87 -12 8 41 235 66 280 l14 25 -5 -30 c-4 -26 -3 -25 6 5 6
19 17 54 25 78 9 31 10 48 3 60 -8 13 1 66 40 217 28 110 53 206 56 213 3 9
51 12 190 12 l185 0 -6 -27z m-484 -480 c-11 -17 -11 -17 -6 0 3 10 6 24 7 30
0 9 2 9 5 0 3 -7 0 -20 -6 -30z"/>
<path d="M4805 3058 c-2 -7 -3 -121 -2 -253 l2 -240 165 0 165 0 0 250 0 250
-163 3 c-125 2 -163 0 -167 -10z"/>
<path d="M6650 2480 l0 -80 80 0 80 0 0 80 0 80 -80 0 -80 0 0 -80z"/>
<path d="M2140 2056 c0 -30 4 -36 21 -36 17 0 20 5 17 32 -2 22 -9 34 -20 36
-15 3 -18 -4 -18 -32z"/>
<path d="M2371 2054 c0 -11 3 -14 6 -6 3 7 2 16 -1 19 -3 4 -6 -2 -5 -13z"/>
<path d="M2359 2021 c-4 -24 0 -73 6 -79 5 -4 6 0 2 9 -3 9 1 29 9 44 8 15 14
28 14 29 0 6 -30 2 -31 -3z"/>
<path d="M2356 1911 c-4 -5 -4 -16 0 -24 10 -28 -22 -46 -80 -42 -50 3 -54 2
-44 -14 14 -24 114 -28 142 -6 17 13 18 18 6 42 -7 16 -12 34 -11 41 2 14 -5
16 -13 3z"/>
<path d="M1971 1715 c0 -35 2 -37 11 -19 7 15 7 28 -1 40 -9 16 -10 12 -10
-21z"/>
<path d="M1965 1650 c-3 -11 -11 -20 -16 -20 -5 0 -9 -4 -9 -9 0 -10 19 -9 38
2 14 9 17 47 3 47 -5 0 -13 -9 -16 -20z"/>
<path d="M2350 1430 c0 -11 7 -20 15 -20 8 0 15 9 15 20 0 11 -7 20 -15 20 -8
0 -15 -9 -15 -20z"/>
<path d="M3256 1744 c-10 -25 -7 -84 4 -84 6 0 10 23 10 50 0 52 -4 61 -14 34z"/>
<path d="M4620 1749 c0 -5 5 -7 10 -4 6 4 17 1 25 -5 12 -10 15 -9 15 4 0 10
-9 16 -25 16 -14 0 -25 -5 -25 -11z"/>
<path d="M4622 1690 c0 -14 2 -19 5 -12 2 6 2 18 0 25 -3 6 -5 1 -5 -13z"/>
<path d="M5320 1696 c0 -25 4 -36 15 -36 9 0 15 9 15 21 0 11 -7 27 -15 35
-13 14 -15 11 -15 -20z"/>
<path d="M1574 993 l33 -98 63 -3 c53 -3 62 -1 57 12 -4 9 -18 54 -32 101
l-26 85 -64 0 -64 0 33 -97z"/>
<path d="M4205 3940 c3 -5 24 -10 46 -10 21 0 39 5 39 10 0 6 -21 10 -46 10
-27 0 -43 -4 -39 -10z"/>
<path d="M4500 3790 l0 -40 45 0 45 0 0 40 0 40 -45 0 -45 0 0 -40z"/>
<path d="M7100 3235 l0 -45 40 0 40 0 0 45 0 45 -40 0 -40 0 0 -45z"/>
<path d="M640 2925 l0 -45 44 0 44 0 4 41 c2 22 2 42 -1 45 -2 2 -24 4 -48 4
l-43 0 0 -45z"/>
<path d="M7200 2555 l0 -55 115 0 115 0 0 -120 0 -120 -55 0 -55 0 0 -55 0
-55 55 0 55 0 0 55 0 54 58 3 57 3 3 173 2 172 -175 0 -175 0 0 -55z"/>
<path d="M7200 2085 l0 -55 55 0 55 0 0 55 0 55 -55 0 -55 0 0 -55z"/>
<path d="M5750 1205 l0 -45 40 0 40 0 0 45 0 45 -40 0 -40 0 0 -45z"/>
<path d="M5456 1078 c-3 -7 -7 -26 -11 -41 -5 -23 -9 -26 -19 -17 -12 9 -15 3
-21 -32 -3 -24 -20 -117 -36 -206 -22 -121 -27 -167 -19 -177 6 -7 10 -31 8
-52 l-3 -38 61 -1 c34 -1 66 -4 71 -7 5 -3 23 69 41 161 18 92 35 178 38 192
4 20 3 22 -5 10 -16 -22 -14 42 4 137 8 43 15 79 15 81 0 1 -27 2 -60 2 -40 0
-62 -4 -64 -12z"/>
<path d="M4426 687 c-10 -38 -7 -84 7 -95 9 -8 12 -30 9 -72 l-4 -60 66 0 c40
0 66 4 66 11 0 5 5 7 10 4 6 -3 10 0 11 7 1 7 4 59 8 114 l6 101 -79 2 c-44 1
-83 4 -87 6 -3 3 -9 -5 -13 -18z"/>
<path d="M2756 253 c30 -81 54 -148 54 -150 0 -2 593 -3 1318 -3 l1317 0 49
138 c27 75 51 143 54 150 3 9 -285 12 -1421 12 l-1425 0 54 -147z m2034 97 c0
-15 -7 -20 -25 -20 -18 0 -25 5 -25 20 0 15 7 20 25 20 18 0 25 -5 25 -20z
m-1430 -10 c0 -5 -20 -10 -45 -10 -25 0 -45 5 -45 10 0 6 20 10 45 10 25 0 45
-4 45 -10z m470 0 c0 -5 -20 -10 -45 -10 -25 0 -45 5 -45 10 0 6 20 10 45 10
25 0 45 -4 45 -10z m-860 -39 c0 -23 -22 -40 -28 -23 -4 13 -32 17 -32 4 0 -5
14 -18 30 -30 22 -16 30 -31 30 -52 0 -29 -2 -30 -45 -30 -41 0 -45 2 -45 25
0 16 6 25 15 25 8 0 15 -4 15 -10 0 -5 5 -10 10 -10 20 0 10 27 -15 40 -19 10
-25 21 -25 47 0 33 1 33 45 33 38 0 45 -3 45 -19z m114 3 c3 -9 6 -42 6 -75 0
-52 -2 -59 -20 -59 -18 0 -20 7 -20 60 0 47 -3 60 -15 60 -8 0 -15 7 -15 15 0
21 56 20 64 -1z m93 -6 c-4 -12 -1 -28 5 -35 8 -10 8 -17 0 -25 -17 -17 -15
-38 3 -38 12 0 15 13 15 60 0 47 3 60 15 60 12 0 15 -15 15 -76 l0 -75 -42 3
-43 3 -2 60 c-2 72 1 85 23 85 12 0 15 -6 11 -22z m193 -37 c0 -33 -3 -66 -6
-75 -8 -21 -54 -21 -54 -1 0 8 5 15 10 15 6 0 10 20 10 45 0 43 -1 45 -25 39
-21 -5 -25 -3 -25 15 0 18 6 21 45 21 l45 0 0 -59z m91 37 l2 -23 4 23 c2 12
11 22 19 22 11 0 14 -17 14 -75 l0 -75 -41 0 -41 0 4 60 c1 33 0 60 -4 60 -5
0 -8 7 -8 15 0 9 9 15 25 15 19 0 25 -6 26 -22z m157 -55 c2 -60 0 -73 -13
-73 -12 0 -15 13 -15 60 0 47 -3 60 -15 60 -8 0 -15 7 -15 16 0 11 8 14 28 12
26 -3 27 -5 30 -75z m210 5 c-3 -67 -5 -73 -25 -76 -16 -2 -23 2 -23 12 0 9 5
16 10 16 6 0 10 20 10 45 0 43 -1 45 -25 39 -21 -5 -25 -3 -25 15 0 18 6 21
40 21 l41 0 -3 -72z m93 35 l1 -38 12 35 c7 19 20 36 29 38 15 3 17 -7 17 -72
0 -61 -3 -76 -15 -76 -10 0 -15 11 -16 33 l-1 32 -14 -32 c-23 -52 -44 -43
-44 20 0 28 -3 62 -6 75 -5 18 -2 22 15 22 17 0 21 -6 22 -37z m155 10 c-5
-17 -3 -29 6 -34 10 -7 10 -11 0 -21 -17 -17 -15 -38 3 -38 12 0 15 13 15 60
0 47 3 60 15 60 12 0 15 -15 15 -75 l0 -75 -45 0 c-39 0 -45 3 -51 25 -4 15
-1 32 6 40 10 12 10 18 0 30 -17 20 -3 55 22 55 17 0 19 -4 14 -27z m172 -50
c2 -60 0 -73 -13 -73 -12 0 -15 12 -15 59 0 50 -3 59 -20 64 -33 9 -23 29 13
25 l32 -3 3 -72z m142 2 c0 -60 -3 -75 -15 -75 -12 0 -15 13 -15 60 0 36 -4
60 -11 60 -5 0 -8 -4 -4 -9 3 -5 1 -12 -5 -16 -5 -3 -10 -26 -10 -51 0 -32 -4
-44 -15 -44 -12 0 -15 15 -13 75 l1 75 44 0 43 0 0 -75z m118 -2 c2 -60 0 -73
-13 -73 -12 0 -15 13 -15 60 0 47 -3 60 -15 60 -8 0 -15 7 -15 16 0 11 8 14
28 12 26 -3 27 -5 30 -75z m142 52 c0 -27 -9 -32 -28 -13 -6 6 -15 8 -19 4 -5
-4 4 -18 20 -30 19 -16 27 -31 27 -54 0 -31 -1 -32 -45 -32 -39 0 -45 3 -45
20 0 23 31 41 38 22 5 -16 22 -15 22 1 0 8 -11 20 -25 27 -19 10 -25 21 -25
47 0 32 1 33 40 33 36 0 40 -2 40 -25z m138 13 c7 -7 12 -39 12 -75 0 -49 -3
-63 -15 -63 -12 0 -15 13 -15 60 0 47 -3 60 -15 60 -8 0 -15 -7 -15 -15 0 -8
5 -15 10 -15 6 0 10 -7 10 -15 0 -8 -4 -15 -10 -15 -5 0 -10 -13 -10 -30 0
-20 -5 -30 -15 -30 -12 0 -15 15 -15 75 l0 75 33 0 c18 0 38 -5 45 -12z m90
-65 c2 -60 0 -73 -13 -73 -12 0 -15 13 -15 60 0 47 -3 60 -15 60 -8 0 -15 7
-15 16 0 11 8 14 28 12 26 -3 27 -5 30 -75z m92 17 c0 -49 3 -58 15 -54 11 5
15 21 15 60 0 39 4 54 14 54 10 0 15 -18 18 -62 3 -35 3 -68 1 -74 -2 -6 -24
-11 -48 -12 l-45 0 0 51 c0 29 -3 62 -6 75 -5 18 -2 22 15 22 19 0 21 -6 21
-60z m210 1 c0 -33 -3 -66 -6 -75 -8 -21 -54 -21 -54 -1 0 8 5 15 10 15 6 0
10 20 10 45 0 43 -1 45 -25 39 -21 -5 -25 -3 -25 15 0 18 6 21 45 21 l45 0 0
-59z m140 3 c0 -34 4 -53 10 -49 6 3 10 28 10 56 0 35 4 49 14 49 10 0 15 -18
18 -62 3 -35 3 -69 0 -75 -5 -16 -32 -17 -32 -2 0 8 -5 8 -15 -1 -29 -24 -45
-4 -45 57 -1 47 -3 54 -11 39 -7 -11 -9 -37 -5 -63 5 -42 4 -44 -17 -41 -18 2
-23 10 -25 41 -2 21 2 44 8 52 8 9 8 15 0 20 -5 3 -10 13 -10 21 0 10 13 14
50 14 l50 0 0 -56z"/>
<path d="M3450 235 c0 -19 5 -35 10 -35 6 0 10 16 10 35 0 19 -4 35 -10 35 -5
0 -10 -16 -10 -35z"/>
</g>
</svg>
